<svg xmlns="http://www.w3.org/2000/svg" width="23.5" height="18.21" viewBox="0 0 23.5 18.21">
  <defs>
    <style>
      .a {
        fill: #fff;
        stroke: #197fcc;
        stroke-miterlimit: 10;
        stroke-width: 0.5px;
      }
    </style>
  </defs>
  <title>add-icon</title>
  <path class="a" d="M18.21,13.72a5.28,5.28,0,0,1-5.28-5.29,5.16,5.16,0,0,1,.57-2.38H2.34A1.84,1.84,0,0,0,.5,7.89V19a1.84,1.84,0,0,0,1.84,1.84H20.87A1.85,1.85,0,0,0,22.71,19V11.21A5.3,5.3,0,0,1,18.21,13.72ZM2.79,19.8A6.46,6.46,0,0,1,4,16a4,4,0,0,1,1.43-1.2,2.1,2.1,0,0,1-1.2-1.89,2.12,2.12,0,1,1,4.23,0,2.1,2.1,0,0,1-1.2,1.89A4.16,4.16,0,0,1,8.67,16,6.5,6.5,0,0,1,9.84,19.8ZM11.34,9.49h-9V7.9h9Zm9.25,9.38h-7.4v-.79h7.4Zm0-1.58h-7.4v-.8h7.4Zm0-1.59h-7.4v-.79h7.4Z" transform="translate(-0.25 -2.89)"/>
  <path class="a" d="M18.21,3.14A5.29,5.29,0,1,0,23.5,8.43,5.28,5.28,0,0,0,18.21,3.14Zm3.7,6.35H19.27v2.64H17.16V9.49H14.51V7.37h2.65V4.73h2.11V7.37h2.64Z" transform="translate(-0.25 -2.89)"/>
</svg>
