<svg xmlns="http://www.w3.org/2000/svg" width="20" height="23.6" viewBox="0 0 20 23.6">
  <defs>
    <style>
      .a {
        fill: #fff;
      }

      .b {
        fill: #197fcc;
      }
    </style>
  </defs>
  <title>copy-icon</title>
  <path class="a" d="M5.09,20.06V4.45a2.21,2.21,0,0,1,2.37-2h9.23A2.19,2.19,0,0,0,14.34.5h-10A2.2,2.2,0,0,0,2,2.49V18.1a2.2,2.2,0,0,0,2.36,2H5.1S5.09,20.07,5.09,20.06Z" transform="translate(-2 -0.2)"/>
  <path class="b" d="M5.09,19.76V4.15a2.2,2.2,0,0,1,2.37-2h9.23a2.19,2.19,0,0,0-2.35-2h-10A2.2,2.2,0,0,0,2,2.19V17.8a2.2,2.2,0,0,0,2.36,2H5.1Z" transform="translate(-2 -0.2)"/>
  <path class="b" d="M19.7,3.91H9.6A2.19,2.19,0,0,0,7.3,6v15.5a2.18,2.18,0,0,0,2.3,2H19.7a2.18,2.18,0,0,0,2.3-2V6A2.19,2.19,0,0,0,19.7,3.91Zm-.08,15H9.68a.55.55,0,0,1-.58-.52.56.56,0,0,1,.58-.52h9.94a.57.57,0,0,1,.59.52A.56.56,0,0,1,19.62,18.9Zm0-3.11H9.68a.56.56,0,0,1-.58-.52.55.55,0,0,1,.58-.52h9.94a.56.56,0,0,1,.59.52A.57.57,0,0,1,19.62,15.79Zm0-3.12H9.68a.52.52,0,1,1,0-1h9.94a.52.52,0,1,1,0,1Zm0-3.12H9.68a.52.52,0,1,1,0-1h9.94a.52.52,0,1,1,0,1Z" transform="translate(-2 -0.2)"/>
  <path class="a" d="M19.7,23.5H9.6a2.18,2.18,0,0,1-2.3-2v.3a2.18,2.18,0,0,0,2.3,2H19.7a2.18,2.18,0,0,0,2.3-2v-.3A2.18,2.18,0,0,1,19.7,23.5Z" transform="translate(-2 -0.2)"/>
</svg>
