<svg xmlns="http://www.w3.org/2000/svg" width="23" height="23" viewBox="0 0 23 23">
  <defs>
    <style>
      .a {
        fill: #fff;
        stroke: #197fcc;
        stroke-miterlimit: 10;
      }
    </style>
  </defs>
  <title>help-icon</title>
  <path class="a" d="M12,1A11,11,0,1,0,23,12,11,11,0,0,0,12,1Zm-.33,19.87a1.16,1.16,0,1,1,1.16-1.16A1.15,1.15,0,0,1,11.67,20.87ZM16,7.27a6.78,6.78,0,0,1-.87,2.6,11.32,11.32,0,0,1-2.61,2.61,8.23,8.23,0,0,1,.29,3.18,8.63,8.63,0,0,1-.29,1.45,1.49,1.49,0,0,1-.87.29,1.51,1.51,0,0,1-.87-.29,5,5,0,0,0,.29-1.45,5.13,5.13,0,0,0-.29-2l-.57-1.73a6.85,6.85,0,0,0,2.6-2A6.69,6.69,0,0,0,14,7.55a1.65,1.65,0,0,0,0-1.73c-.54-.69-1.71-.38-2-.29a3.42,3.42,0,0,0-1.44.87,5,5,0,0,0-1.45,2,1,1,0,0,1-.87-.29,1,1,0,0,1-.29-.86A5.44,5.44,0,0,1,12,3.21a3.53,3.53,0,0,1,3.19.87A3.56,3.56,0,0,1,16,7.27Z" transform="translate(-0.5 -0.5)"/>
</svg>
