<svg xmlns="http://www.w3.org/2000/svg" width="86" height="126.18" viewBox="0 0 86 126.18">
  <defs>
    <style>
      .a {
        fill: #0f4c81;
      }

      .b {
        fill: #fff;
      }

      .c {
        fill: #197ffc;
      }
    </style>
  </defs>
  <title>wizard</title>
  <path class="a" d="M89.61,68.1H39.93a23.16,23.16,0,0,1-4.66,20.18c-5.38,6.52-6.14,11.15-6.21,14,0,2.28.52,6.11,4.66,10.87a27.36,27.36,0,0,1,6.21-15.53,13.72,13.72,0,0,0-1.55,9.32,13.32,13.32,0,0,0,3.1,6.21,16.13,16.13,0,0,1,3.11,3.1,16.36,16.36,0,0,1,3.1,7.76,10.36,10.36,0,0,0,1.55-6.21,11.7,11.7,0,0,0-1.55-4.65,27.53,27.53,0,0,0,17.08,14,7.27,7.27,0,0,1-1.56-7.76,6.7,6.7,0,0,1,3.11-3.11,12.26,12.26,0,0,0,3.1-3.1A12.13,12.13,0,0,0,71,110a26.61,26.61,0,0,0,7.76,6.21,27,27,0,0,0,12.42,3.11,31.56,31.56,0,0,1-3.11-17.08,30.44,30.44,0,0,1,12.42,4.66,29,29,0,0,0,0-7.76,30,30,0,0,0-4.65-12.42,18,18,0,0,1-6.21-9.32A17.71,17.71,0,0,1,89.61,68.1Z" transform="translate(-21 -0.91)"/>
  <g>
    <path class="b" d="M48.77,69.89l1.79,7.17a6.33,6.33,0,0,0,5.38,5.37L55.18,84l-1,2.06,1.79,1.8A10.38,10.38,0,0,1,57.73,86a10.54,10.54,0,0,1,3.58-1.79h7.17A10.54,10.54,0,0,1,72.06,86a10.38,10.38,0,0,1,1.79,1.8l1.8-1.8-1.8-3.58a6.33,6.33,0,0,0,5.38-5.37L81,69.89" transform="translate(-21 -0.91)"/>
    <path class="b" d="M60.86,87.81a8,8,0,0,0-5.37,5.37,10.94,10.94,0,0,1,2.79-2.12,11.08,11.08,0,0,1,1.24-.57,9.89,9.89,0,0,0,1.78.34,10.15,10.15,0,0,0,3.6-.34,7.65,7.65,0,0,0,4.29.34,6.87,6.87,0,0,0,1.08-.34,12.08,12.08,0,0,1,1.25.57,10.87,10.87,0,0,1,2.78,2.12,8,8,0,0,0-5.37-5.37,9.47,9.47,0,0,1-2.06.23,8.59,8.59,0,0,1-2-.23,9,9,0,0,1-2.21.23A9.67,9.67,0,0,1,60.86,87.81Z" transform="translate(-21 -0.91)"/>
    <g>
      <path class="a" d="M67.24,82.07,65.1,85.28c.59-.47,1.21-1,1.84-1.61A26.06,26.06,0,0,0,69.38,81a5.26,5.26,0,0,0-.84-1.18,4.78,4.78,0,0,0-1.3-1,3.74,3.74,0,0,1,.34,1.92A4,4,0,0,1,67.24,82.07Z" transform="translate(-21 -0.91)"/>
      <path class="a" d="M62.55,82.07l2.14,3.21c-.59-.47-1.21-1-1.84-1.61A25.89,25.89,0,0,1,60.42,81a4.87,4.87,0,0,1,.83-1.18,4.78,4.78,0,0,1,1.3-1,4,4,0,0,0-.34,1.92A4,4,0,0,0,62.55,82.07Z" transform="translate(-21 -0.91)"/>
    </g>
  </g>
  <g>
    <path class="c" d="M30,72.58a50.78,50.78,0,0,1,10.75,1.79,51.41,51.41,0,0,1,12.54,5.37,131.67,131.67,0,0,1,43-8.95q4.62-.17,9,0a75.21,75.21,0,0,1-17.92-9,75.22,75.22,0,0,1-9-7.17l3.59-9A35.36,35.36,0,0,1,73,35,17.26,17.26,0,0,1,74.75,24.2l3.58-3.58,3.59,7.17Q80.12,15.24,78.33,2.7c-1,2.3-2.24,4.7-3.58,7.17-1.77,3.27-3.59,6.26-5.37,9L56.83,29.58,51.46,45.7a22.74,22.74,0,0,1-7.17,12.54,89.28,89.28,0,0,1-9,3.59A90.65,90.65,0,0,1,21,65.41,10.44,10.44,0,0,1,28.17,69,9.45,9.45,0,0,1,30,72.58Z" transform="translate(-21 -0.91)"/>
    <path class="a" d="M31.75,70.79A50.68,50.68,0,0,1,42.5,72.58,51.41,51.41,0,0,1,55,78a131.91,131.91,0,0,1,43-9q4.62-.15,9,0A75.31,75.31,0,0,1,89.08,60a76,76,0,0,1-9-7.17l3.59-9a36.09,36.09,0,0,1-5.38-5.37,35.67,35.67,0,0,1-3.58-5.38,17.26,17.26,0,0,1,1.79-10.75l3.58-3.58L83.71,26Q81.91,13.45,80.12.91q-1.58,3.45-3.58,7.17c-1.77,3.27-3.59,6.25-5.37,9L58.63,27.79,53.25,43.91a22.74,22.74,0,0,1-7.17,12.54A90.49,90.49,0,0,1,37.13,60a91,91,0,0,1-14.34,3.58A10.4,10.4,0,0,1,30,67.2,9.38,9.38,0,0,1,31.75,70.79Z" transform="translate(-21 -0.91)"/>
  </g>
</svg>
